<mxfile host="app.diagrams.net" agent="Mozilla/5.0 (Macintosh; Intel Mac OS X 10.15; rv:133.0) Gecko/20100101 Firefox/133.0" version="25.0.3">
  <diagram name="Page-1" id="jCGwE1LBPZgif49EneUD">
    <mxGraphModel dx="1224" dy="783" grid="1" gridSize="10" guides="1" tooltips="1" connect="1" arrows="1" fold="1" page="1" pageScale="1" pageWidth="1200" pageHeight="1920" math="0" shadow="0">
      <root>
        <mxCell id="0" />
        <mxCell id="1" parent="0" />
        <mxCell id="HLos1mIRZm7TwcqSez5J-85" value="" style="group;fillColor=none;" parent="1" vertex="1" connectable="0">
          <mxGeometry y="780" width="1200" height="480" as="geometry" />
        </mxCell>
        <mxCell id="HLos1mIRZm7TwcqSez5J-8" value="" style="rounded=0;whiteSpace=wrap;html=1;fillColor=#FFFFFF;fontColor=#ffffff;" parent="HLos1mIRZm7TwcqSez5J-85" vertex="1">
          <mxGeometry y="-50" width="1200" height="150" as="geometry" />
        </mxCell>
        <mxCell id="nu3RnHburqwjy4xu8POM-3" value="&lt;div&gt;&lt;font color=&quot;#333333&quot; size=&quot;1&quot;&gt;&lt;b style=&quot;font-size: 32px;&quot;&gt;BOOKHAVEN&lt;br&gt;&lt;/b&gt;&lt;/font&gt;&lt;/div&gt;&lt;div style=&quot;line-height: 50%;&quot;&gt;&lt;font color=&quot;#333333&quot; size=&quot;1&quot;&gt;&lt;b style=&quot;font-size: 32px;&quot;&gt;&lt;br&gt;&lt;/b&gt;&lt;/font&gt;&lt;/div&gt;&lt;div style=&quot;font-size: 18px;&quot;&gt;&lt;font color=&quot;#333333&quot; style=&quot;font-size: 18px;&quot;&gt;&lt;b&gt;WELCOME TO BOOK HAVEN&lt;/b&gt;&lt;/font&gt;&lt;/div&gt;&lt;div style=&quot;font-size: 18px;&quot;&gt;&lt;font color=&quot;#333333&quot; style=&quot;font-size: 18px;&quot;&gt;&lt;b&gt;&lt;i&gt;Discover Your Next Fav Read To Heart&lt;br&gt;&lt;/i&gt;&lt;/b&gt;&lt;/font&gt;&lt;/div&gt;&lt;div&gt;&lt;br&gt;&lt;/div&gt;" style="text;html=1;align=center;verticalAlign=middle;whiteSpace=wrap;rounded=0;strokeColor=none;fontColor=#FFFFFF;" parent="HLos1mIRZm7TwcqSez5J-85" vertex="1">
          <mxGeometry y="-50" width="1200" height="150" as="geometry" />
        </mxCell>
        <mxCell id="HLos1mIRZm7TwcqSez5J-87" value="" style="group" parent="1" vertex="1" connectable="0">
          <mxGeometry y="860" width="1200" height="460" as="geometry" />
        </mxCell>
        <mxCell id="HLos1mIRZm7TwcqSez5J-23" value="" style="rounded=0;whiteSpace=wrap;html=1;fillColor=#f8f9fa;" parent="HLos1mIRZm7TwcqSez5J-87" vertex="1">
          <mxGeometry width="1200" height="460.00000000000006" as="geometry" />
        </mxCell>
        <mxCell id="Gbr0lDLeI2ae-f9VhBkv-68" value="" style="group" parent="HLos1mIRZm7TwcqSez5J-87" vertex="1" connectable="0">
          <mxGeometry y="-30.001818181818166" width="1200" height="450.5681818181818" as="geometry" />
        </mxCell>
        <mxCell id="HLos1mIRZm7TwcqSez5J-16" value="" style="group;rounded=0;" parent="Gbr0lDLeI2ae-f9VhBkv-68" vertex="1" connectable="0">
          <mxGeometry x="90" y="70.56818181818183" width="280" height="380" as="geometry" />
        </mxCell>
        <mxCell id="HLos1mIRZm7TwcqSez5J-15" value="" style="rounded=1;whiteSpace=wrap;html=1;glass=0;labelPadding=0;arcSize=4;" parent="HLos1mIRZm7TwcqSez5J-16" vertex="1">
          <mxGeometry x="-1" width="281" height="380" as="geometry" />
        </mxCell>
        <mxCell id="Gbr0lDLeI2ae-f9VhBkv-17" value="" style="shape=image;html=1;verticalAlign=top;verticalLabelPosition=bottom;labelBackgroundColor=#ffffff;imageAspect=0;aspect=fixed;image=https://cdn2.iconfinder.com/data/icons/crystalproject/128x128/mimetypes/image.png" parent="HLos1mIRZm7TwcqSez5J-16" vertex="1">
          <mxGeometry x="54.5" y="9.43" width="170" height="170" as="geometry" />
        </mxCell>
        <mxCell id="Gbr0lDLeI2ae-f9VhBkv-22" value="&lt;b&gt;Book Name&lt;br&gt;&lt;/b&gt;" style="text;html=1;align=center;verticalAlign=middle;whiteSpace=wrap;rounded=0;" parent="HLos1mIRZm7TwcqSez5J-16" vertex="1">
          <mxGeometry x="40" y="164.6590909090909" width="200" height="35.284090909090914" as="geometry" />
        </mxCell>
        <mxCell id="Gbr0lDLeI2ae-f9VhBkv-27" value="&lt;div align=&quot;left&quot;&gt;&lt;font style=&quot;font-size: 16px;&quot;&gt;Used machine learning techniques to recognize human activity via sensors.&lt;br&gt;&lt;/font&gt;&lt;/div&gt;" style="text;html=1;align=left;verticalAlign=middle;whiteSpace=wrap;rounded=0;" parent="HLos1mIRZm7TwcqSez5J-16" vertex="1">
          <mxGeometry x="9.5" y="199.94" width="260" height="62.73" as="geometry" />
        </mxCell>
        <mxCell id="Jl-aKupMv36PsG1tpd38-4" value="Author Name" style="text;html=1;align=center;verticalAlign=middle;whiteSpace=wrap;rounded=0;" parent="HLos1mIRZm7TwcqSez5J-16" vertex="1">
          <mxGeometry x="180" y="269.43" width="90" height="30" as="geometry" />
        </mxCell>
        <mxCell id="Jl-aKupMv36PsG1tpd38-5" value="Genre" style="text;html=1;align=center;verticalAlign=middle;whiteSpace=wrap;rounded=0;" parent="HLos1mIRZm7TwcqSez5J-16" vertex="1">
          <mxGeometry x="20" y="319.4336363636363" width="60" height="30" as="geometry" />
        </mxCell>
        <mxCell id="Jl-aKupMv36PsG1tpd38-6" value="12 / 01/2001" style="text;html=1;align=center;verticalAlign=middle;whiteSpace=wrap;rounded=0;" parent="HLos1mIRZm7TwcqSez5J-16" vertex="1">
          <mxGeometry x="104.5" y="320.43" width="70" height="30" as="geometry" />
        </mxCell>
        <mxCell id="Jl-aKupMv36PsG1tpd38-7" value="4/5" style="text;html=1;align=center;verticalAlign=middle;whiteSpace=wrap;rounded=0;" parent="HLos1mIRZm7TwcqSez5J-16" vertex="1">
          <mxGeometry x="195" y="320.4336363636363" width="60" height="30" as="geometry" />
        </mxCell>
        <mxCell id="fj7bPf8suZ-612rlpNnT-1" value="" style="group;rounded=0;" vertex="1" connectable="0" parent="HLos1mIRZm7TwcqSez5J-16">
          <mxGeometry width="280" height="380" as="geometry" />
        </mxCell>
        <mxCell id="fj7bPf8suZ-612rlpNnT-2" value="" style="rounded=1;whiteSpace=wrap;html=1;glass=0;labelPadding=0;arcSize=4;" vertex="1" parent="fj7bPf8suZ-612rlpNnT-1">
          <mxGeometry x="-1" width="281" height="380" as="geometry" />
        </mxCell>
        <mxCell id="fj7bPf8suZ-612rlpNnT-3" value="" style="shape=image;html=1;verticalAlign=top;verticalLabelPosition=bottom;labelBackgroundColor=#ffffff;imageAspect=0;aspect=fixed;image=https://cdn2.iconfinder.com/data/icons/crystalproject/128x128/mimetypes/image.png" vertex="1" parent="fj7bPf8suZ-612rlpNnT-1">
          <mxGeometry x="55" y="9.43" width="170" height="170" as="geometry" />
        </mxCell>
        <mxCell id="fj7bPf8suZ-612rlpNnT-4" value="&lt;b&gt;Book Name&lt;br&gt;&lt;/b&gt;" style="text;html=1;align=center;verticalAlign=middle;whiteSpace=wrap;rounded=0;" vertex="1" parent="fj7bPf8suZ-612rlpNnT-1">
          <mxGeometry x="40" y="164.6590909090909" width="200" height="35.284090909090914" as="geometry" />
        </mxCell>
        <mxCell id="fj7bPf8suZ-612rlpNnT-5" value="&lt;div align=&quot;left&quot;&gt;&lt;font style=&quot;font-size: 16px;&quot;&gt;Used machine learning techniques to recognize human activity via sensors.&lt;br&gt;&lt;/font&gt;&lt;/div&gt;" style="text;html=1;align=left;verticalAlign=middle;whiteSpace=wrap;rounded=0;" vertex="1" parent="fj7bPf8suZ-612rlpNnT-1">
          <mxGeometry x="9.5" y="199.94" width="260" height="62.73" as="geometry" />
        </mxCell>
        <mxCell id="fj7bPf8suZ-612rlpNnT-6" value="Author Name" style="text;html=1;align=center;verticalAlign=middle;whiteSpace=wrap;rounded=0;" vertex="1" parent="fj7bPf8suZ-612rlpNnT-1">
          <mxGeometry x="180" y="269.43" width="90" height="30" as="geometry" />
        </mxCell>
        <mxCell id="fj7bPf8suZ-612rlpNnT-7" value="Genre" style="text;html=1;align=center;verticalAlign=middle;whiteSpace=wrap;rounded=0;" vertex="1" parent="fj7bPf8suZ-612rlpNnT-1">
          <mxGeometry x="20" y="319.4336363636363" width="60" height="30" as="geometry" />
        </mxCell>
        <mxCell id="fj7bPf8suZ-612rlpNnT-8" value="12 / 01/2001" style="text;html=1;align=center;verticalAlign=middle;whiteSpace=wrap;rounded=0;" vertex="1" parent="fj7bPf8suZ-612rlpNnT-1">
          <mxGeometry x="104.5" y="320.43" width="70" height="30" as="geometry" />
        </mxCell>
        <mxCell id="fj7bPf8suZ-612rlpNnT-9" value="4/5" style="text;html=1;align=center;verticalAlign=middle;whiteSpace=wrap;rounded=0;" vertex="1" parent="fj7bPf8suZ-612rlpNnT-1">
          <mxGeometry x="195" y="320.4336363636363" width="60" height="30" as="geometry" />
        </mxCell>
        <mxCell id="Jl-aKupMv36PsG1tpd38-8" value="" style="group;rounded=0;" parent="HLos1mIRZm7TwcqSez5J-87" vertex="1" connectable="0">
          <mxGeometry x="460" y="40.56636363636369" width="280" height="380" as="geometry" />
        </mxCell>
        <mxCell id="Jl-aKupMv36PsG1tpd38-9" value="" style="rounded=1;whiteSpace=wrap;html=1;glass=0;labelPadding=0;arcSize=4;" parent="Jl-aKupMv36PsG1tpd38-8" vertex="1">
          <mxGeometry x="-1" width="281" height="380" as="geometry" />
        </mxCell>
        <mxCell id="Jl-aKupMv36PsG1tpd38-10" value="" style="shape=image;html=1;verticalAlign=top;verticalLabelPosition=bottom;labelBackgroundColor=#ffffff;imageAspect=0;aspect=fixed;image=https://cdn2.iconfinder.com/data/icons/crystalproject/128x128/mimetypes/image.png" parent="Jl-aKupMv36PsG1tpd38-8" vertex="1">
          <mxGeometry x="55" y="9.43" width="170" height="170" as="geometry" />
        </mxCell>
        <mxCell id="Jl-aKupMv36PsG1tpd38-11" value="&lt;b&gt;Book Name&lt;br&gt;&lt;/b&gt;" style="text;html=1;align=center;verticalAlign=middle;whiteSpace=wrap;rounded=0;" parent="Jl-aKupMv36PsG1tpd38-8" vertex="1">
          <mxGeometry x="40" y="164.6590909090909" width="200" height="35.284090909090914" as="geometry" />
        </mxCell>
        <mxCell id="Jl-aKupMv36PsG1tpd38-12" value="&lt;div align=&quot;left&quot;&gt;&lt;font style=&quot;font-size: 16px;&quot;&gt;Used machine learning techniques to recognize human activity via sensors.&lt;br&gt;&lt;/font&gt;&lt;/div&gt;" style="text;html=1;align=left;verticalAlign=middle;whiteSpace=wrap;rounded=0;" parent="Jl-aKupMv36PsG1tpd38-8" vertex="1">
          <mxGeometry x="9.5" y="199.94" width="260" height="62.73" as="geometry" />
        </mxCell>
        <mxCell id="Jl-aKupMv36PsG1tpd38-13" value="Author Name" style="text;html=1;align=center;verticalAlign=middle;whiteSpace=wrap;rounded=0;" parent="Jl-aKupMv36PsG1tpd38-8" vertex="1">
          <mxGeometry x="180" y="269.43" width="90" height="30" as="geometry" />
        </mxCell>
        <mxCell id="Jl-aKupMv36PsG1tpd38-14" value="Genre" style="text;html=1;align=center;verticalAlign=middle;whiteSpace=wrap;rounded=0;" parent="Jl-aKupMv36PsG1tpd38-8" vertex="1">
          <mxGeometry x="20" y="319.4336363636363" width="60" height="30" as="geometry" />
        </mxCell>
        <mxCell id="Jl-aKupMv36PsG1tpd38-15" value="12 / 01/2001" style="text;html=1;align=center;verticalAlign=middle;whiteSpace=wrap;rounded=0;" parent="Jl-aKupMv36PsG1tpd38-8" vertex="1">
          <mxGeometry x="104.5" y="320.43" width="70" height="30" as="geometry" />
        </mxCell>
        <mxCell id="Jl-aKupMv36PsG1tpd38-16" value="4/5" style="text;html=1;align=center;verticalAlign=middle;whiteSpace=wrap;rounded=0;" parent="Jl-aKupMv36PsG1tpd38-8" vertex="1">
          <mxGeometry x="195" y="320.4336363636363" width="60" height="30" as="geometry" />
        </mxCell>
        <mxCell id="Jl-aKupMv36PsG1tpd38-17" value="" style="group;rounded=0;" parent="HLos1mIRZm7TwcqSez5J-87" vertex="1" connectable="0">
          <mxGeometry x="840" y="40.56636363636369" width="280" height="380" as="geometry" />
        </mxCell>
        <mxCell id="Jl-aKupMv36PsG1tpd38-18" value="" style="rounded=1;whiteSpace=wrap;html=1;glass=0;labelPadding=0;arcSize=4;" parent="Jl-aKupMv36PsG1tpd38-17" vertex="1">
          <mxGeometry x="-1" width="281" height="380" as="geometry" />
        </mxCell>
        <mxCell id="Jl-aKupMv36PsG1tpd38-19" value="" style="shape=image;html=1;verticalAlign=top;verticalLabelPosition=bottom;labelBackgroundColor=#ffffff;imageAspect=0;aspect=fixed;image=https://cdn2.iconfinder.com/data/icons/crystalproject/128x128/mimetypes/image.png" parent="Jl-aKupMv36PsG1tpd38-17" vertex="1">
          <mxGeometry x="55" y="9.43" width="170" height="170" as="geometry" />
        </mxCell>
        <mxCell id="Jl-aKupMv36PsG1tpd38-20" value="&lt;b&gt;Book Name&lt;br&gt;&lt;/b&gt;" style="text;html=1;align=center;verticalAlign=middle;whiteSpace=wrap;rounded=0;" parent="Jl-aKupMv36PsG1tpd38-17" vertex="1">
          <mxGeometry x="40" y="164.6590909090909" width="200" height="35.284090909090914" as="geometry" />
        </mxCell>
        <mxCell id="Jl-aKupMv36PsG1tpd38-21" value="&lt;div align=&quot;left&quot;&gt;&lt;font style=&quot;font-size: 16px;&quot;&gt;Used machine learning techniques to recognize human activity via sensors.&lt;br&gt;&lt;/font&gt;&lt;/div&gt;" style="text;html=1;align=left;verticalAlign=middle;whiteSpace=wrap;rounded=0;" parent="Jl-aKupMv36PsG1tpd38-17" vertex="1">
          <mxGeometry x="9.5" y="199.94" width="260" height="62.73" as="geometry" />
        </mxCell>
        <mxCell id="Jl-aKupMv36PsG1tpd38-22" value="Author Name" style="text;html=1;align=center;verticalAlign=middle;whiteSpace=wrap;rounded=0;" parent="Jl-aKupMv36PsG1tpd38-17" vertex="1">
          <mxGeometry x="180" y="269.43" width="90" height="30" as="geometry" />
        </mxCell>
        <mxCell id="Jl-aKupMv36PsG1tpd38-23" value="Genre" style="text;html=1;align=center;verticalAlign=middle;whiteSpace=wrap;rounded=0;" parent="Jl-aKupMv36PsG1tpd38-17" vertex="1">
          <mxGeometry x="20" y="319.4336363636363" width="60" height="30" as="geometry" />
        </mxCell>
        <mxCell id="Jl-aKupMv36PsG1tpd38-24" value="12 / 01/2001" style="text;html=1;align=center;verticalAlign=middle;whiteSpace=wrap;rounded=0;" parent="Jl-aKupMv36PsG1tpd38-17" vertex="1">
          <mxGeometry x="104.5" y="320.43" width="70" height="30" as="geometry" />
        </mxCell>
        <mxCell id="Jl-aKupMv36PsG1tpd38-25" value="4/5" style="text;html=1;align=center;verticalAlign=middle;whiteSpace=wrap;rounded=0;" parent="Jl-aKupMv36PsG1tpd38-17" vertex="1">
          <mxGeometry x="195" y="320.4336363636363" width="60" height="30" as="geometry" />
        </mxCell>
        <mxCell id="HLos1mIRZm7TwcqSez5J-93" value="" style="group" parent="1" vertex="1" connectable="0">
          <mxGeometry y="1780" width="1200" height="60" as="geometry" />
        </mxCell>
        <mxCell id="HLos1mIRZm7TwcqSez5J-84" value="" style="rounded=0;whiteSpace=wrap;html=1;strokeColor=#333333;fillColor=#F7F7F7;" parent="HLos1mIRZm7TwcqSez5J-93" vertex="1">
          <mxGeometry width="1200" height="60" as="geometry" />
        </mxCell>
        <mxCell id="Gbr0lDLeI2ae-f9VhBkv-101" value="&lt;font style=&quot;font-size: 16px;&quot;&gt;Connect&amp;nbsp; with me on &lt;font color=&quot;#999999&quot;&gt;Email&lt;/font&gt;.&lt;/font&gt;" style="text;html=1;align=center;verticalAlign=middle;whiteSpace=wrap;rounded=0;" parent="HLos1mIRZm7TwcqSez5J-93" vertex="1">
          <mxGeometry width="1200" height="60" as="geometry" />
        </mxCell>
        <mxCell id="Jl-aKupMv36PsG1tpd38-26" value="" style="rounded=0;whiteSpace=wrap;html=1;fillColor=#FFFFFF;" parent="1" vertex="1">
          <mxGeometry y="1320" width="1200" height="460.00000000000006" as="geometry" />
        </mxCell>
        <mxCell id="Jl-aKupMv36PsG1tpd38-47" value="" style="group;rounded=0;" parent="1" vertex="1" connectable="0">
          <mxGeometry x="90" y="1359.9963636363636" width="280" height="380" as="geometry" />
        </mxCell>
        <mxCell id="Jl-aKupMv36PsG1tpd38-48" value="" style="rounded=1;whiteSpace=wrap;html=1;glass=0;labelPadding=0;arcSize=4;fillColor=#F7F7F7;" parent="Jl-aKupMv36PsG1tpd38-47" vertex="1">
          <mxGeometry x="-1" width="281" height="380" as="geometry" />
        </mxCell>
        <mxCell id="Jl-aKupMv36PsG1tpd38-49" value="" style="shape=image;html=1;verticalAlign=top;verticalLabelPosition=bottom;labelBackgroundColor=#ffffff;imageAspect=0;aspect=fixed;image=https://cdn2.iconfinder.com/data/icons/crystalproject/128x128/mimetypes/image.png" parent="Jl-aKupMv36PsG1tpd38-47" vertex="1">
          <mxGeometry x="55" y="9.43" width="170" height="170" as="geometry" />
        </mxCell>
        <mxCell id="Jl-aKupMv36PsG1tpd38-50" value="&lt;b&gt;Book Name&lt;/b&gt;&lt;b&gt;&lt;br&gt;&lt;/b&gt;" style="text;html=1;align=center;verticalAlign=middle;whiteSpace=wrap;rounded=0;" parent="Jl-aKupMv36PsG1tpd38-47" vertex="1">
          <mxGeometry x="40" y="164.6590909090909" width="200" height="35.284090909090914" as="geometry" />
        </mxCell>
        <mxCell id="Jl-aKupMv36PsG1tpd38-51" value="&lt;div align=&quot;left&quot;&gt;&lt;font style=&quot;font-size: 16px;&quot;&gt;Used machine learning techniques to recognize human activity via sensors.&lt;br&gt;&lt;/font&gt;&lt;/div&gt;" style="text;html=1;align=left;verticalAlign=middle;whiteSpace=wrap;rounded=0;" parent="Jl-aKupMv36PsG1tpd38-47" vertex="1">
          <mxGeometry x="9.5" y="199.94" width="260" height="62.73" as="geometry" />
        </mxCell>
        <mxCell id="Jl-aKupMv36PsG1tpd38-52" value="Author Name" style="text;html=1;align=center;verticalAlign=middle;whiteSpace=wrap;rounded=0;" parent="Jl-aKupMv36PsG1tpd38-47" vertex="1">
          <mxGeometry x="180" y="269.43" width="90" height="30" as="geometry" />
        </mxCell>
        <mxCell id="Jl-aKupMv36PsG1tpd38-53" value="Genre" style="text;html=1;align=center;verticalAlign=middle;whiteSpace=wrap;rounded=0;" parent="Jl-aKupMv36PsG1tpd38-47" vertex="1">
          <mxGeometry x="20" y="319.4336363636363" width="60" height="30" as="geometry" />
        </mxCell>
        <mxCell id="Jl-aKupMv36PsG1tpd38-54" value="12 / 01/2001" style="text;html=1;align=center;verticalAlign=middle;whiteSpace=wrap;rounded=0;" parent="Jl-aKupMv36PsG1tpd38-47" vertex="1">
          <mxGeometry x="104.5" y="320.43" width="70" height="30" as="geometry" />
        </mxCell>
        <mxCell id="Jl-aKupMv36PsG1tpd38-55" value="4/5" style="text;html=1;align=center;verticalAlign=middle;whiteSpace=wrap;rounded=0;" parent="Jl-aKupMv36PsG1tpd38-47" vertex="1">
          <mxGeometry x="195" y="320.4336363636363" width="60" height="30" as="geometry" />
        </mxCell>
        <mxCell id="Jl-aKupMv36PsG1tpd38-57" value="" style="group;rounded=0;" parent="1" vertex="1" connectable="0">
          <mxGeometry x="460" y="1359.9963636363636" width="280" height="380" as="geometry" />
        </mxCell>
        <mxCell id="Jl-aKupMv36PsG1tpd38-58" value="" style="rounded=1;whiteSpace=wrap;html=1;glass=0;labelPadding=0;arcSize=4;fillColor=#F7F7F7;" parent="Jl-aKupMv36PsG1tpd38-57" vertex="1">
          <mxGeometry x="-1" width="281" height="380" as="geometry" />
        </mxCell>
        <mxCell id="Jl-aKupMv36PsG1tpd38-59" value="" style="shape=image;html=1;verticalAlign=top;verticalLabelPosition=bottom;labelBackgroundColor=#ffffff;imageAspect=0;aspect=fixed;image=https://cdn2.iconfinder.com/data/icons/crystalproject/128x128/mimetypes/image.png" parent="Jl-aKupMv36PsG1tpd38-57" vertex="1">
          <mxGeometry x="54.5" y="9.43" width="170" height="170" as="geometry" />
        </mxCell>
        <mxCell id="Jl-aKupMv36PsG1tpd38-60" value="&lt;b&gt;Book Name&lt;/b&gt;&lt;b&gt;&lt;br&gt;&lt;/b&gt;" style="text;html=1;align=center;verticalAlign=middle;whiteSpace=wrap;rounded=0;" parent="Jl-aKupMv36PsG1tpd38-57" vertex="1">
          <mxGeometry x="40" y="164.6590909090909" width="200" height="35.284090909090914" as="geometry" />
        </mxCell>
        <mxCell id="Jl-aKupMv36PsG1tpd38-61" value="&lt;div align=&quot;left&quot;&gt;&lt;font style=&quot;font-size: 16px;&quot;&gt;Used machine learning techniques to recognize human activity via sensors.&lt;br&gt;&lt;/font&gt;&lt;/div&gt;" style="text;html=1;align=left;verticalAlign=middle;whiteSpace=wrap;rounded=0;" parent="Jl-aKupMv36PsG1tpd38-57" vertex="1">
          <mxGeometry x="9.5" y="199.94" width="260" height="62.73" as="geometry" />
        </mxCell>
        <mxCell id="Jl-aKupMv36PsG1tpd38-62" value="Author Name" style="text;html=1;align=center;verticalAlign=middle;whiteSpace=wrap;rounded=0;" parent="Jl-aKupMv36PsG1tpd38-57" vertex="1">
          <mxGeometry x="180" y="269.43" width="90" height="30" as="geometry" />
        </mxCell>
        <mxCell id="Jl-aKupMv36PsG1tpd38-63" value="Genre" style="text;html=1;align=center;verticalAlign=middle;whiteSpace=wrap;rounded=0;" parent="Jl-aKupMv36PsG1tpd38-57" vertex="1">
          <mxGeometry x="20" y="319.4336363636363" width="60" height="30" as="geometry" />
        </mxCell>
        <mxCell id="Jl-aKupMv36PsG1tpd38-64" value="12 / 01/2001" style="text;html=1;align=center;verticalAlign=middle;whiteSpace=wrap;rounded=0;" parent="Jl-aKupMv36PsG1tpd38-57" vertex="1">
          <mxGeometry x="104.5" y="320.43" width="70" height="30" as="geometry" />
        </mxCell>
        <mxCell id="Jl-aKupMv36PsG1tpd38-65" value="4/5" style="text;html=1;align=center;verticalAlign=middle;whiteSpace=wrap;rounded=0;" parent="Jl-aKupMv36PsG1tpd38-57" vertex="1">
          <mxGeometry x="195" y="320.4336363636363" width="60" height="30" as="geometry" />
        </mxCell>
        <mxCell id="Jl-aKupMv36PsG1tpd38-67" value="" style="group;rounded=0;" parent="1" vertex="1" connectable="0">
          <mxGeometry x="840" y="1359.9963636363636" width="280" height="380" as="geometry" />
        </mxCell>
        <mxCell id="Jl-aKupMv36PsG1tpd38-68" value="" style="rounded=1;whiteSpace=wrap;html=1;glass=0;labelPadding=0;arcSize=4;fillColor=#F7F7F7;" parent="Jl-aKupMv36PsG1tpd38-67" vertex="1">
          <mxGeometry x="-1" width="281" height="380" as="geometry" />
        </mxCell>
        <mxCell id="Jl-aKupMv36PsG1tpd38-69" value="" style="shape=image;html=1;verticalAlign=top;verticalLabelPosition=bottom;labelBackgroundColor=#ffffff;imageAspect=0;aspect=fixed;image=https://cdn2.iconfinder.com/data/icons/crystalproject/128x128/mimetypes/image.png" parent="Jl-aKupMv36PsG1tpd38-67" vertex="1">
          <mxGeometry x="54.5" y="9.43" width="170" height="170" as="geometry" />
        </mxCell>
        <mxCell id="Jl-aKupMv36PsG1tpd38-70" value="&lt;b&gt;Book Name&lt;br&gt;&lt;/b&gt;" style="text;html=1;align=center;verticalAlign=middle;whiteSpace=wrap;rounded=0;" parent="Jl-aKupMv36PsG1tpd38-67" vertex="1">
          <mxGeometry x="40" y="164.6590909090909" width="200" height="35.284090909090914" as="geometry" />
        </mxCell>
        <mxCell id="Jl-aKupMv36PsG1tpd38-71" value="&lt;div align=&quot;left&quot;&gt;&lt;font style=&quot;font-size: 16px;&quot;&gt;Used machine learning techniques to recognize human activity via sensors.&lt;br&gt;&lt;/font&gt;&lt;/div&gt;" style="text;html=1;align=left;verticalAlign=middle;whiteSpace=wrap;rounded=0;" parent="Jl-aKupMv36PsG1tpd38-67" vertex="1">
          <mxGeometry x="9.5" y="199.94" width="260" height="62.73" as="geometry" />
        </mxCell>
        <mxCell id="Jl-aKupMv36PsG1tpd38-72" value="Author Name" style="text;html=1;align=center;verticalAlign=middle;whiteSpace=wrap;rounded=0;" parent="Jl-aKupMv36PsG1tpd38-67" vertex="1">
          <mxGeometry x="180" y="269.43" width="90" height="30" as="geometry" />
        </mxCell>
        <mxCell id="Jl-aKupMv36PsG1tpd38-73" value="Genre" style="text;html=1;align=center;verticalAlign=middle;whiteSpace=wrap;rounded=0;" parent="Jl-aKupMv36PsG1tpd38-67" vertex="1">
          <mxGeometry x="20" y="319.4336363636363" width="60" height="30" as="geometry" />
        </mxCell>
        <mxCell id="Jl-aKupMv36PsG1tpd38-74" value="12 / 01/2001" style="text;html=1;align=center;verticalAlign=middle;whiteSpace=wrap;rounded=0;" parent="Jl-aKupMv36PsG1tpd38-67" vertex="1">
          <mxGeometry x="104.5" y="320.43" width="70" height="30" as="geometry" />
        </mxCell>
        <mxCell id="Jl-aKupMv36PsG1tpd38-75" value="4/5" style="text;html=1;align=center;verticalAlign=middle;whiteSpace=wrap;rounded=0;" parent="Jl-aKupMv36PsG1tpd38-67" vertex="1">
          <mxGeometry x="195" y="320.4336363636363" width="60" height="30" as="geometry" />
        </mxCell>
      </root>
    </mxGraphModel>
  </diagram>
</mxfile>
